<svg xmlns="http://www.w3.org/2000/svg" data-name="Layer 1" viewBox="0 0 100 125" x="0px" y="0px">
    <defs>
        <linearGradient id="grad" x1="0%" y1="0%" x2="100%" y2="0%">
            <stop offset="0%" style="stop-color:#ec967f;stop-opacity:1" />
            <stop offset="100%" style="stop-color:#f7c989;stop-opacity:1" />
        </linearGradient>
    </defs>
    <path fill="url(#grad)" d="M85.1,42.2l-9.4-20a12.2,12.2,0,1,0-21.1-9.8L26.9,16.1A12.2,12.2,0,1,0,14.5,34.2l-.2,25.6A12.2,12.2,0,1,0,25.3,79.9L49.1,90.6a12.2,12.2,0,0,0,22.7-8.6L82.4,66.4h1.5a12.2,12.2,0,0,0,1.3-24.3ZM66.6,8a6.2,6.2,0,1,1-6.2,6.2A6.2,6.2,0,0,1,66.6,8ZM60.3,73.7a12.1,12.1,0,0,0-7.1,2.3L39.6,52.2,60.3,24.6l2.3,1.1-.2,48.2ZM55.2,18.3a12.1,12.1,0,0,0,.9,1.9L36.3,46.5l-10-17.4a12.1,12.1,0,0,0,2.2-7V22Zm-31,44.4a12.2,12.2,0,0,0-3.9-2.3l.2-26.8,1.2-.5L32.4,51.8Zm-14-40.5a6.2,6.2,0,1,1,6.2,6.2A6.2,6.2,0,0,1,10.2,22.2Zm6,55.8a6.2,6.2,0,1,1,6.2-6.2A6.2,6.2,0,0,1,16.2,78ZM27.7,68l7.9-10.6L49.1,80.9a12.1,12.1,0,0,0-.8,2.8L28,74.6a11.9,11.9,0,0,0-.3-6.5ZM60.3,92a6.2,6.2,0,1,1,6.2-6.2A6.2,6.2,0,0,1,60.3,92Zm8.1-15.4.2-50.4,2.1-.6,8.3,17.6a12.1,12.1,0,0,0-2.3,20.9Zm15.5-16A6.2,6.2,0,1,1,90,54.3,6.2,6.2,0,0,1,83.8,60.5Z"/>
</svg>